<?xml version="1.0" encoding="UTF-8"?>
<svg id="Layer_2" data-name="Layer 2" xmlns="http://www.w3.org/2000/svg" viewBox="0 0 265.96 264.62">
  <defs>
    <style>
      .cls-1 {
        fill: #f4f4f2;
        stroke-width: 0px;
      }
    </style>
  </defs>
  <g id="Graphic_Elements" data-name="Graphic Elements">
    <path class="cls-1" d="M132.98,56.18c0-82.46-64.05-68.85-30.14,6.41C68.93-12.67,15.95,25.82,77.91,80.7c-61.96-54.88-94.7,1.84-15.41,26.69-79.29-24.85-86.14,40.27-3.22,30.65-82.92,9.63-62.68,71.91,9.52,29.31-72.2,42.6-28.39,91.26,20.62,22.9-49.01,68.36,10.82,95,28.15,12.53-17.33,82.46,48.15,82.46,30.82,0,17.33,82.46,77.16,55.83,28.15-12.53,49.01,68.36,92.82,19.7,20.62-22.9,72.2,42.6,92.44-19.68,9.52-29.31,82.92,9.63,76.07-55.5-3.22-30.65,79.29-24.85,46.55-81.56-15.41-26.69,61.96-54.88,8.98-93.37-24.93-18.11,33.91-75.25-30.14-88.87-30.14-6.41Z"/>
  </g>
</svg>