<?xml version="1.0" encoding="UTF-8"?>
<svg id="Layer_2" data-name="Layer 2" xmlns="http://www.w3.org/2000/svg" viewBox="0 0 283.14 281.89">
  <defs>
    <style>
      .cls-1 {
        fill: #f4f4f2;
        stroke-width: 0px;
      }
    </style>
  </defs>
  <g id="Graphic_Elements" data-name="Graphic Elements">
    <polygon class="cls-1" points="250.21 167.13 283.14 149.73 252.62 128.4 277.61 100.78 241.63 91.17 255.67 56.68 218.57 59.95 219.97 22.74 186.22 38.5 174.81 3.05 148.49 29.41 125.64 0 109.93 33.77 78.4 13.95 75.18 51.05 38.77 43.21 48.44 79.18 11.54 84.27 32.93 114.76 0 132.16 30.52 153.49 5.53 181.11 41.51 190.72 27.47 225.21 64.57 221.94 63.17 259.15 96.92 243.39 108.33 278.84 134.65 252.48 157.5 281.89 173.21 248.12 204.74 267.94 207.96 230.84 244.37 238.68 234.7 202.71 271.6 197.62 250.21 167.13"/>
  </g>
</svg>