<svg width="89" height="91" viewBox="0 0 89 91" fill="none" xmlns="http://www.w3.org/2000/svg">
<path d="M88.272 88.976C88.528 89.616 88.016 90.384 87.248 90.384H65.104C64.464 90.384 63.952 90 63.824 89.488L59.088 75.28C58.96 74.896 58.576 74.512 58.064 74.512H30.672C30.16 74.512 29.776 74.896 29.648 75.28L24.912 89.616C24.784 90.128 24.272 90.384 23.888 90.384H1.488C0.72 90.384 0.208 89.616 0.464 88.848L33.36 1.55199C33.616 0.911995 34.128 0.527992 34.768 0.527992H54.096C54.608 0.527992 55.12 0.911995 55.376 1.424L88.272 88.976ZM51.28 56.208C52.048 56.208 52.56 55.44 52.304 54.672L45.52 33.808C45.136 32.784 43.6 32.784 43.344 33.808L36.432 54.8C36.176 55.44 36.688 56.208 37.456 56.208H51.28Z" fill="#F4F4F2"/>
</svg>
