<svg width="76" height="91" viewBox="0 0 76 91" fill="none" xmlns="http://www.w3.org/2000/svg">
<path d="M48.712 4.112C64.968 11.28 75.336 27.536 75.336 45.456C75.336 54.032 72.904 62.48 68.424 69.648C63.944 76.688 57.672 82.32 50.376 85.904C45.64 88.336 41.416 90.256 27.976 90.256H1.224C0.584 90.256 0.2 89.744 0.2 89.232V1.67999C0.2 1.03999 0.584 0.527992 1.224 0.527992H27.336C38.984 0.527992 44.488 2.31999 48.712 4.112ZM46.536 62.48C50.632 58.256 52.808 52.368 52.808 45.328C52.68 22.032 28.616 21.136 23.112 21.264C22.472 21.264 21.96 21.776 21.96 22.416V68.24C21.96 68.88 22.472 69.392 23.112 69.392H24.392C33.864 69.392 42.44 66.704 46.536 62.48Z" fill="#F4F4F2"/>
</svg>
