<svg width="74" height="91" viewBox="0 0 74 91" fill="none" xmlns="http://www.w3.org/2000/svg">
<path d="M72.52 0.655998C73.032 0.655998 73.544 1.168 73.544 1.67999V89.104C73.544 89.744 73.032 90.256 72.52 90.256H51.912C51.272 90.256 50.76 89.744 50.76 89.104V56.208C50.76 55.568 50.248 55.056 49.608 55.056H24.136C23.496 55.056 22.984 55.568 22.984 56.208V89.104C22.984 89.744 22.472 90.256 21.832 90.256H1.224C0.584 90.256 0.2 89.744 0.2 89.104V1.67999C0.2 1.168 0.584 0.655998 1.224 0.655998H21.832C22.472 0.655998 22.984 1.168 22.984 1.67999V33.424C22.984 34.064 23.496 34.576 24.136 34.576H49.608C50.248 34.576 50.76 34.064 50.76 33.424V1.67999C50.76 1.168 51.272 0.655998 51.912 0.655998H72.52Z" fill="#F4F4F2"/>
</svg>
