<svg width="67" height="91" viewBox="0 0 67 91" fill="none" xmlns="http://www.w3.org/2000/svg">
<path d="M51.784 59.024L64.712 88.72C65.096 89.36 64.584 90.256 63.816 90.256H41.288C40.904 90.256 40.52 90 40.392 89.488L28.616 62.736C28.488 62.352 28.104 62.096 27.592 62.096H24.008C23.496 62.096 22.984 62.48 22.984 63.12V88.848C22.984 89.488 22.472 89.872 21.832 89.872H1.224C0.584 89.872 0.2 89.488 0.2 88.848V1.424C0.2 0.783997 0.584 0.271996 1.224 0.271996H28.872C44.872 0.271996 51.016 2.83199 55.88 6.8C62.408 12.432 66.248 21.136 66.248 30.736C66.248 39.952 62.408 49.424 56.904 54.288C55.24 55.696 53.832 56.848 52.296 57.744C51.784 58 51.656 58.512 51.784 59.024ZM39.24 40.08C43.464 38.16 44.36 34.192 44.36 30.992C44.36 26.64 42.568 23.824 38.984 22.288C36.04 20.88 32.328 20.88 29.896 20.88H24.008C23.496 20.88 22.984 21.392 22.984 22.032V40.336C22.984 40.976 23.496 41.36 24.008 41.36H30.792C32.84 41.36 36.296 41.36 39.24 40.08Z" fill="#F4F4F2"/>
</svg>
