<svg width="63" height="94" viewBox="0 0 63 94" fill="none" xmlns="http://www.w3.org/2000/svg">
<path d="M41.6 39.136C56.32 45.92 62.08 53.088 62.08 64.864C62.08 68.832 61.44 76.384 57.216 82.656C52.096 89.952 43.52 93.792 31.488 93.792C21.504 93.792 13.696 91.104 8.192 86.112C5.888 83.808 2.304 79.328 0.64 72.16C0.512 71.52 0.896 71.008 1.408 70.88L21.888 66.656C22.4 66.528 23.04 66.784 23.168 67.424C24.96 73.696 30.08 74.08 31.232 74.08C36.224 74.08 39.424 69.856 39.424 65.888C39.424 61.536 35.968 60.128 23.552 54.752L22.528 54.24C16.64 51.808 1.024 45.408 1.024 28.512C1.024 10.464 16.896 0.735992 31.872 0.735992C34.688 0.735992 39.936 1.12 45.312 3.296C49.024 4.96 57.088 9.56799 58.752 19.04C58.88 19.552 58.496 20.192 57.984 20.32L38.912 25.056C38.4 25.184 37.888 24.928 37.76 24.416C36.736 22.24 34.944 20.448 31.104 20.448C27.52 20.448 23.808 22.88 23.808 27.104C23.808 30.944 26.112 31.968 41.6 39.136Z" fill="#F4F4F2"/>
</svg>
