<svg width="61" height="91" viewBox="0 0 61 91" fill="none" xmlns="http://www.w3.org/2000/svg">
<path d="M58.96 0.399994C59.6 0.399994 60.112 0.911995 60.112 1.424V19.984C60.112 20.496 59.6 21.008 58.96 21.008H43.088C42.448 21.008 41.936 21.52 41.936 22.16V88.976C41.936 89.616 41.424 90.128 40.912 90.128H20.176C19.664 90.128 19.152 89.616 19.152 88.976V22.16C19.152 21.52 18.64 21.008 18.128 21.008H2C1.36 21.008 0.976 20.496 0.976 19.984V1.424C0.976 0.911995 1.36 0.399994 2 0.399994H58.96Z" fill="#F4F4F2"/>
</svg>
